PathFileType	4	(X/Y/Z)	s08c0301.trc
DataRate	CameraRate	NumFrames	NumMarkers	Units	OrigDataRate	OrigDataStartFrame	OrigNumFrames
200	200	5	50	mm	200	1750	2000
Frame#	Time	racr			lacr			c7			jug			rlel			rdr			llel			ldr			s2			lic			ric			lasi			rasi			rpsi			lpsi			rgt			lgt			rth1			rth2			rth3			rth4			rlfc			rmfc			rsh1			rsh2			rsh3			rsh4			rlmal			rmmal			rcal			rtoe			rmt5			lth1			lth2			lth4			lth3			llfc			lmfc			llmal			lmmal			lcal			lmt5			lsh1			lsh2			lsh3			lsh4			ltoe			SBIKE			LBIKE			RBIKE			
		X1	Y1	Z1	X2	Y2	Z2	X3	Y3	Z3	X4	Y4	Z4	X5	Y5	Z5	X6	Y6	Z6	X7	Y7	Z7	X8	Y8	Z8	X9	Y9	Z9	X10	Y10	Z10	X11	Y11	Z11	X12	Y12	Z12	X13	Y13	Z13	X14	Y14	Z14	X15	Y15	Z15	X16	Y16	Z16	X17	Y17	Z17	X18	Y18	Z18	X19	Y19	Z19	X20	Y20	Z20	X21	Y21	Z21	X22	Y22	Z22	X23	Y23	Z23	X24	Y24	Z24	X25	Y25	Z25	X26	Y26	Z26	X27	Y27	Z27	X28	Y28	Z28	X29	Y29	Z29	X30	Y30	Z30	X31	Y31	Z31	X32	Y32	Z32	X33	Y33	Z33	X34	Y34	Z34	X35	Y35	Z35	X36	Y36	Z36	X37	Y37	Z37	X38	Y38	Z38	X39	Y39	Z39	X40	Y40	Z40	X41	Y41	Z41	X42	Y42	Z42	X43	Y43	Z43	X44	Y44	Z44	X45	Y45	Z45	X46	Y46	Z46	X47	Y47	Z47	X48	Y48	Z48	X49	Y49	Z49	X50	Y50	Z50	
1750	8.7500	519.839456	1363.258933	-60.242563	530.977148	1371.435229	-402.624685	512.596310	1436.413466	-232.766492	466.878502	1285.578199	-228.423568	608.094361	1125.926151	-0.379876	798.900664	885.795100	-70.636438	643.764435	1136.843918	-458.354226	806.090765	881.917438	-419.863243	-45.590602	1201.129352	-256.121236	131.815824	1183.678185	-394.030021	106.444178	1222.898787	-85.556197	148.289857	1127.849731	-359.044054	131.663680	1165.357346	-114.484187	-16.970197	1246.429072	-207.387159	-6.646913	1240.003580	-301.171957	25.360576	1122.302641	-42.323002	47.734454	1062.494098	-421.075254	169.038804	1036.944890	-19.112630	256.043315	1019.427514	-12.723929	320.826278	961.183800	-10.519735	272.848003	1050.452296	-26.032283	414.535844	888.934608	-24.599182	408.242725	883.640410	-136.415086	319.024414	799.175835	-6.144036	284.750296	719.393079	-33.864131	216.336704	669.405115	-46.393138	311.452101	707.826200	-62.713545	138.722720	582.449937	-69.104556	165.184281	601.956984	-151.394588	56.005041	576.091909	-115.612570	340.007441	490.698415	-108.352296	246.432865	484.627052	-42.158710	99.250961	937.546242	-439.800271	150.225054	866.268543	-439.115911	183.447423	878.386068	-426.956891	157.054443	777.408229	-435.262312	194.860876	658.739913	-410.734845	192.333887	633.458780	-307.624279	215.367863	244.287741	-404.246286	255.013728	277.216891	-336.722390	156.002053	229.081291	-365.679760	356.084220	148.831891	-422.350245	192.572113	531.816387	-435.777718	220.547070	452.247451	-418.910008	208.658870	364.537645	-420.430791	241.417311	457.398950	-385.456623	439.749401	171.119582	-352.991496	-140.826139	940.304634	-228.590422	16.826269	79.696911	-427.519267	16.696689	79.874122	-29.215595	
1751	8.7550	519.647733	1363.145287	-60.004732	530.989173	1371.500782	-402.600778	512.629148	1436.576541	-232.708197	466.846605	1285.740078	-228.303329	608.031437	1125.885016	-0.439027	798.853289	885.769205	-70.685588	644.020592	1136.981062	-458.122688	806.161719	881.859956	-419.826259	-45.328576	1201.021715	-256.201587	132.141099	1183.620075	-393.947264	106.613767	1222.937466	-85.545983	148.590626	1127.761914	-359.096350	131.922395	1165.623895	-114.643794	-16.746552	1246.384214	-207.464171	-6.428814	1239.903361	-301.267005	25.801966	1122.623015	-42.245650	48.091699	1062.266357	-421.130547	169.981187	1037.992575	-19.497262	257.090457	1021.003828	-13.250792	322.179018	963.053804	-11.249707	273.662994	1052.065685	-26.746599	416.219357	891.296505	-25.482532	409.763268	885.792076	-137.384183	321.115977	801.088116	-6.804617	287.196176	721.187300	-34.312636	218.996911	670.910398	-46.663122	313.863561	710.002990	-62.751993	141.719903	583.441289	-69.144232	168.080859	602.924553	-151.462062	58.955136	576.900451	-115.581941	343.081907	491.815069	-108.439921	249.452529	485.668354	-42.362493	99.738264	937.268021	-439.766883	151.068814	866.143344	-438.968930	184.154787	878.365403	-426.740478	158.199284	777.278306	-434.939506	196.443174	658.828986	-410.560376	193.941525	633.474961	-307.296839	212.967254	244.037167	-404.198213	252.784040	276.750123	-336.556181	153.537524	228.962909	-365.464792	353.103098	147.737674	-422.340760	192.810837	531.733127	-435.451733	220.080702	451.954258	-418.673477	207.307681	364.337147	-420.198806	241.049084	456.825455	-385.252491	436.935376	169.615461	-353.001948	-140.850357	940.371837	-228.619771	16.826730	79.701459	-427.516973	16.702361	79.905299	-29.188512	
1752	8.7600	519.486911	1363.076948	-59.717548	531.025742	1371.585557	-402.607013	512.693862	1436.728409	-232.635631	466.869339	1285.826140	-228.303148	607.979982	1125.898982	-0.493571	798.860667	885.777450	-70.732620	644.306645	1137.128235	-457.924889	806.258654	881.821894	-419.782423	-45.064199	1200.890724	-256.297579	132.340386	1183.478545	-393.773992	106.766463	1223.043320	-85.532251	148.917138	1127.690608	-359.145513	132.200779	1165.884038	-114.844634	-16.501183	1246.309503	-207.595225	-6.151409	1239.800590	-301.420311	26.293612	1122.979265	-42.122076	48.488211	1062.004001	-421.156993	170.918718	1039.135434	-19.838282	258.123414	1022.745911	-13.617400	323.487075	964.916673	-11.967095	274.527908	1053.646018	-27.458493	417.893496	893.548324	-26.386858	411.254275	887.895772	-138.222175	323.191933	803.049893	-7.489358	289.575083	722.883445	-34.760296	221.692613	672.309401	-46.988322	316.313294	711.806058	-63.194784	144.780044	584.322166	-69.207911	171.030213	603.798021	-151.587396	61.969753	577.681656	-115.580371	346.288928	492.947968	-108.493854	252.758401	486.723052	-42.230785	100.276557	936.970564	-439.728452	151.889026	866.030202	-438.842549	184.955682	878.413928	-426.668994	159.317621	777.201087	-434.708658	197.970537	658.795123	-410.089903	195.732266	633.650600	-306.158041	210.492326	243.814311	-404.107680	250.597677	276.426410	-336.441557	150.913908	228.993053	-365.386821	350.088588	146.678067	-422.249288	192.974818	531.635693	-434.919071	219.587481	451.628576	-418.364367	205.930320	364.203493	-419.942106	240.693544	456.355484	-385.032733	433.985030	168.128298	-352.986700	-140.836030	940.361629	-228.585582	16.824886	79.706329	-427.515273	16.716654	79.866025	-29.205471	
1753	8.7650	519.336786	1363.016954	-59.509284	531.054778	1371.669812	-402.556875	512.745363	1436.883091	-232.515010	466.878487	1286.116059	-228.207912	607.934906	1125.895987	-0.571267	798.325111	885.218173	-71.411034	644.571018	1137.238628	-457.718902	806.360850	881.802812	-419.768387	-44.804651	1200.803917	-256.346586	132.562215	1183.372520	-393.673691	106.989841	1223.158264	-85.524927	149.209662	1127.591637	-359.154712	132.493895	1166.189888	-115.028581	-16.267447	1246.239759	-207.634978	-5.908023	1239.672016	-301.518592	26.746819	1123.382683	-42.029387	48.903331	1061.816445	-421.162429	171.813840	1040.231028	-20.240987	259.149920	1024.302372	-14.246843	324.798292	966.832336	-12.750064	275.361562	1055.251631	-28.240594	419.540151	895.928701	-27.336854	412.751570	889.996932	-139.039608	325.263485	804.964551	-8.174024	292.022532	724.630046	-35.215989	224.402076	673.576987	-47.290529	318.826975	713.562722	-63.627440	147.892983	585.209815	-69.301505	174.062057	604.690030	-151.672511	65.008678	578.358141	-115.553411	349.528525	494.112031	-108.606689	256.039875	487.683182	-42.282689	100.966336	936.664187	-439.649287	152.844165	865.987969	-438.693714	185.837724	878.492421	-426.573832	160.649874	777.175644	-434.351420	199.668337	658.887395	-409.788089	197.515292	633.736769	-305.755311	208.009808	243.607793	-403.973064	248.215443	275.876091	-336.239127	148.250629	229.047416	-365.244628	346.947429	145.647091	-422.172076	193.372101	531.670950	-434.641981	219.184657	451.413002	-418.114543	204.621390	364.171088	-419.674265	240.415328	455.557799	-384.187670	430.999690	166.649802	-352.910563	-140.827597	940.378439	-228.577182	16.808945	79.840175	-427.616603	16.710665	79.891785	-29.191734	
1754	8.7700	519.202584	1362.971508	-59.263251	531.113712	1371.737930	-402.520913	512.823885	1437.027293	-232.392533	466.938573	1286.363330	-228.200208	607.919928	1125.954800	-0.633066	798.320091	885.248752	-71.458511	644.822201	1137.369722	-457.565340	806.468058	881.798168	-419.756962	-44.533601	1200.677860	-256.449462	132.820855	1183.456244	-393.580130	107.186760	1223.306582	-85.572152	149.528049	1127.470555	-359.094080	132.768716	1166.396211	-115.240076	-16.016469	1246.167893	-207.750526	-5.687274	1239.572821	-301.620852	27.250853	1123.762218	-41.908778	49.302726	1061.624680	-421.197327	172.735793	1041.380385	-20.638730	260.177732	1025.936218	-14.847264	326.131804	968.737291	-13.476204	276.150967	1056.897390	-28.952884	421.154092	898.217635	-28.204858	414.214409	892.114133	-139.982985	327.314468	806.962046	-8.899082	294.525542	726.203273	-35.674948	227.098347	674.843292	-47.604591	321.353568	715.237236	-64.053789	151.023085	585.938442	-69.320442	177.059024	605.477298	-151.758077	68.032690	578.867114	-115.482064	352.827023	495.188912	-108.668374	259.319972	488.653426	-42.475876	101.638817	936.404216	-439.544571	153.828991	865.970551	-438.482055	186.814967	878.674292	-426.414757	162.046057	777.190701	-433.978897	201.451678	658.965218	-409.449204	199.282728	633.930407	-305.330077	205.415397	243.526515	-403.872987	245.909991	275.632885	-336.180858	145.544856	229.217242	-365.155912	343.717578	144.701237	-422.126821	193.907181	531.733279	-434.278340	218.825916	451.173866	-417.808680	203.324305	364.134078	-419.373459	240.097334	455.481475	-384.484697	427.879217	164.977833	-352.594429	-140.812290	940.379531	-228.577870	16.831854	79.722698	-427.524449	16.741581	79.907628	-29.192065	
